<?xml version="1.0" encoding="utf-8"?>

<svg version="1.1" id="Calque_1" xmlns="http://www.w3.org/2000/svg" xmlns:xlink="http://www.w3.org/1999/xlink" x="0px" y="0px"
	 viewBox="0 0 1920 1080" style="enable-background:new 0 0 1920 1080;" xml:space="preserve">

<style type="text/css">
	.st0{clip-path:url(#SVGID_2_);fill:url(#SVGID_3_);}
	.st1{clip-path:url(#SVGID_2_);fill:#3B756A;}
	.st2{opacity:0.5;clip-path:url(#SVGID_2_);fill:#6BA56F;enable-background:new    ;}
	.st3{opacity:0.5;clip-path:url(#SVGID_2_);fill:#A7D1C1;enable-background:new    ;}
	.st4{clip-path:url(#SVGID_2_);fill:#032620;}
	.st5{clip-path:url(#SVGID_2_);fill:#917999;}
	.st6{clip-path:url(#SVGID_2_);fill:#725E7A;}
	.st7{clip-path:url(#SVGID_2_);fill:#BF9ACA;}
	.st8{clip-path:url(#SVGID_2_);fill:#1C4F45;}
	.st9{clip-path:url(#SVGID_2_);fill:#D8CADD;}
</style>

<g>
	<defs>
		<rect id="SVGID_1_" x="-0.3" y="-4.7" width="1920" height="1087.7"/>
	</defs>

	<clipPath id="SVGID_2_">
		<use xlink:href="#SVGID_1_"  style="overflow:visible;"/>
	</clipPath>

	<title>accueil</title>
	
	<radialGradient id="SVGID_3_" cx="960" cy="540" r="780.0782" gradientTransform="matrix(1 0 0 -1 0 1080)" gradientUnits="userSpaceOnUse">
		<stop  offset="0.44" style="stop-color:#073F34"/>
		<stop  offset="1" style="stop-color:#032620"/>
	</radialGradient>

	<polygon class="st0" points="1922,1080 659.9,1080 -2,1080 -2,0 1922,0 	"/>

	<ellipse id="fondcercle1" class="st1" cx="1425.4" cy="725.8" rx="604.4" ry="575.8"/>

	<ellipse id="fondcercle2" class="st2" cx="1429" cy="728.8" rx="559" ry="534.8"/>

	<ellipse id="fondcercle3" class="st3" cx="1428.5" cy="731.7" rx="494.5" ry="470.7"/>

	<ellipse id="fondcercle4" class="st4" cx="1430" cy="730.7" rx="430" ry="409.7"/>

	<path id="grossemontagne" class="st5" d="M929,829c0,0,318-547,468-608s218,131,262,162s261-38,261-10c0,1-5.2,407.4,4,462L929,829z"/>

	<path id="ombremontagne" class="st6" d="M979,774c0,0-24,10.3-19,2c49.6-82.3,322.7-526.4,448-560.5c2.8-0.8,14.3-2.8,17-3.4"/>

	<path id="petitemontagne" class="st7" d="M1063,759c0,0,67-193,196-174s326,25,381-13s203-171,281-128l-1,424l-886-21L1063,759z"/>

	<path id="colline2" class="st1" d="M590.5,1080.5c0,0,74.5-177.5,196.5-196.5s115-120,227-115s292.5,7.5,341.5,45.5s211.3,266.4,211.3,266.4
		l-491.8-0.2L590.5,1080.5z"/>
		
	<path id="colline1" class="st8" d="M1923.7,832.7c0,0-155.2-39.2-204.2-63.2s-189-156-301-90s-189,235-270,234s-210.7-30.8-314,167.5
		c-0.5,1,1088-0.5,1088-0.5L1923.7,832.7z"/>

	<path id="nuages" class="st9" d="M1458.4,477.1h419.9c14.8,0,26.7,12,26.7,26.7l0,0c0,14.8-12,26.7-26.7,26.7h-419.9c-14.8,0-26.7-12-26.7-26.7
		l0,0C1431.7,489.1,1443.6,477.1,1458.4,477.1z"/>

	<path id="nuages" class="st9" d="M880.1,106h289.4c14.8,0,26.7,12,26.7,26.7l0,0c0,14.8-12,26.7-26.7,26.7H880.1c-14.8,0-26.7-12-26.7-26.7l0,0
		C853.4,118,865.4,106,880.1,106z"/>
		
	<path id="nuages" class="st9" d="M1105,184.3L1105,184.3c0-11.6,7.5-21.8,18.5-25.4c-1.6-0.3-3.3-0.5-5-0.5H916.7c-1.5,0-2.9,0.1-4.3,0.4
		c12.9,2.2,22.3,13.3,22.4,26.4l0,0c0,13.1-9.5,24.2-22.4,26.4c1.4,0.2,2.9,0.4,4.3,0.4h201.8c2.8,0,5.5-0.4,8.2-1.3
		C1114.1,208.1,1105,197.2,1105,184.3z"/>

	<path id="nuages" class="st9" d="M798.7,211.1h436.6c14.8,0,26.7,12,26.7,26.7l0,0c0,14.8-12,26.7-26.7,26.7H798.7c-14.8,0-26.7-12-26.7-26.7
		l0,0C772,223,784,211.1,798.7,211.1z"/>

	<path id="nuages" class="st9" d="M1349.6,478.7h24.7c14.8,0,26.7,12,26.7,26.7v0c0,14.8-12,26.7-26.7,26.7h-24.7c-14.8,0-26.7-12-26.7-26.7v0
		C1322.9,490.6,1334.9,478.7,1349.6,478.7z"/>

	<path id="nuages" class="st9" d="M1247.6,98.7h31.7c14.8,0,26.7,12,26.7,26.7l0,0c0,14.8-12,26.7-26.7,26.7h-31.7c-14.8,0-26.7-12-26.7-26.7
		l0,0C1220.9,110.6,1232.9,98.7,1247.6,98.7z"/>

	<path id="nuages" class="st9" d="M1568.9,529.8h162.8c14.8,0,26.7,12,26.7,26.7v0c0,14.8-12,26.7-26.7,26.7h-162.8c-14.8,0-26.7-12-26.7-26.7v0
		C1542.2,541.7,1554.2,529.8,1568.9,529.8z"/>

	<path id="nuages" class="st9" d="M1493.3,582.2h289.4c14.8,0,26.7,12,26.7,26.7v0c0,14.8-12,26.7-26.7,26.7h-289.4c-14.8,0-26.7-12-26.7-26.7v0
		C1466.6,594.2,1478.5,582.2,1493.3,582.2z"/>

	<path id="nuages" class="st9" d="M1860.8,587.5h53.4c14.8,0,26.7,12,26.7,26.7v0c0,14.8-12,26.7-26.7,26.7h-53.4c-14.8,0-26.7-12-26.7-26.7v0
		C1834.1,599.5,1846,587.5,1860.8,587.5z"/>

	<path id="nuages" class="st9" d="M692.4,213.1h31.7c14.8,0,26.7,12,26.7,26.7v0c0,14.8-12,26.7-26.7,26.7h-31.7c-14.8,0-26.7-12-26.7-26.7v0
		C665.7,225,677.7,213.1,692.4,213.1z"/>

	<path id="cachenuage" class="st5" d="M1503.8,531.3h53.4c14.8,0,26.7,11.4,26.7,25.5v0c0,14.1-12,25.5-26.7,25.5h-53.4c-14.8,0-26.7-11.4-26.7-25.5
		v0C1477.1,542.7,1489,531.3,1503.8,531.3z"/>

	<path id="cachenuage" class="st7" d="M1738.2,530.4h53.4c14.8,0,26.7,11.4,26.7,25.5v0c0,14.1-12,25.5-26.7,25.5h-53.4c-14.8,0-26.7-11.4-26.7-25.5
		v0C1711.5,541.8,1723.5,530.4,1738.2,530.4z"/>
</g>
</svg>
